<?xml version="1.0" encoding="iso-8859-1"?>
<!-- Generator: Adobe Illustrator 19.0.0, SVG Export Plug-In . SVG Version: 6.00 Build 0)  -->
<svg xmlns="http://www.w3.org/2000/svg" xmlns:xlink="http://www.w3.org/1999/xlink" version="1.1" id="Capa_1" x="0px" y="0px" viewBox="0 0 512 512" style="enable-background:new 0 0 512 512;" xml:space="preserve">
<g>
	<g>
		<path d="M257,0C117.104,0,0,113.029,0,255c0,140.742,116.009,257,257,257c142.13,0,255-117.257,255-257    C512,114.061,397.951,0,257,0z M257,482.2C131.832,482.2,29.8,380.168,29.8,255C29.8,130.935,131.832,29.8,257,29.8    c124.065,0,225.2,101.135,225.2,225.2C482.2,380.168,381.065,482.2,257,482.2z"/>
	</g>
</g>
<g>
	<g>
		<path d="M405.493,146.361c-17.55-17.552-45.978-17.612-63.593-0.049L223.262,263.115L170.147,210    c-17.586-17.587-46.053-17.589-63.64,0c-17.587,17.586-17.589,46.05,0,63.639l84.853,84.854c17.5,17.498,48.172,17.467,65.64,0    L405.492,210C423.08,192.411,423.081,163.949,405.493,146.361z M384.279,188.786L235.787,337.279    c-5.857,5.857-17.356,5.857-23.214,0l-84.853-84.854c-5.862-5.862-5.864-15.348,0.001-21.213c5.86-5.862,15.35-5.863,21.213,0    l63.639,63.639c5.825,5.827,15.26,5.862,21.13,0.083l129.279-127.279c0.028-0.027,0.056-0.055,0.083-0.083    c5.861-5.861,15.351-5.864,21.213,0h0.001C390.142,173.437,390.142,182.923,384.279,188.786z"/>
	</g>
</g>
<g>
</g>
<g>
</g>
<g>
</g>
<g>
</g>
<g>
</g>
<g>
</g>
<g>
</g>
<g>
</g>
<g>
</g>
<g>
</g>
<g>
</g>
<g>
</g>
<g>
</g>
<g>
</g>
<g>
</g>
</svg>
